<?xml version="1.0" encoding="UTF-8" standalone="no"?>
<!-- Created with Inkscape (http://www.inkscape.org/) -->
<svg
   xmlns:dc="http://purl.org/dc/elements/1.1/"
   xmlns:cc="http://web.resource.org/cc/"
   xmlns:rdf="http://www.w3.org/1999/02/22-rdf-syntax-ns#"
   xmlns:svg="http://www.w3.org/2000/svg"
   xmlns="http://www.w3.org/2000/svg"
   xmlns:xlink="http://www.w3.org/1999/xlink"
   xmlns:sodipodi="http://sodipodi.sourceforge.net/DTD/sodipodi-0.dtd"
   xmlns:inkscape="http://www.inkscape.org/namespaces/inkscape"
   width="127.98287"
   height="128.0247"
   id="svg2"
   sodipodi:version="0.32"
   inkscape:version="0.44.1"
   sodipodi:docbase="/home/jellis/DeskBlocks/deskblocks/data"
   sodipodi:docname="Blocks Container.svg"
   version="1.0">
  <defs
     id="defs4">
    <linearGradient
       id="linearGradient5542">
      <stop
         id="stop5544"
         offset="0"
         style="stop-color:#9afc95;stop-opacity:1;" />
      <stop
         id="stop5546"
         offset="1"
         style="stop-color:#006a16;stop-opacity:1;" />
    </linearGradient>
    <linearGradient
       id="linearGradient3734">
      <stop
         id="stop3738"
         offset="0"
         style="stop-color:#fffd83;stop-opacity:1;" />
      <stop
         style="stop-color:#af1326;stop-opacity:1;"
         offset="1"
         id="stop3740" />
    </linearGradient>
    <linearGradient
       id="linearGradient3718">
      <stop
         id="stop3720"
         offset="0"
         style="stop-color:#dedede;stop-opacity:1;" />
      <stop
         style="stop-color:#ff8391;stop-opacity:1;"
         offset="0.23809524"
         id="stop3722" />
      <stop
         id="stop3724"
         offset="1"
         style="stop-color:#af1326;stop-opacity:1;" />
    </linearGradient>
    <linearGradient
       id="linearGradient9160">
      <stop
         style="stop-color:#dedede;stop-opacity:1;"
         offset="0"
         id="stop9162" />
      <stop
         id="stop9166"
         offset="0.23809524"
         style="stop-color:#78a5c6;stop-opacity:1;" />
      <stop
         style="stop-color:#136daf;stop-opacity:1;"
         offset="1"
         id="stop9164" />
    </linearGradient>
    <linearGradient
       id="linearGradient2855">
      <stop
         id="stop2857"
         offset="0"
         style="stop-color:#dedede;stop-opacity:1;" />
      <stop
         id="stop2859"
         offset="1"
         style="stop-color:#454445;stop-opacity:1;" />
    </linearGradient>
    <linearGradient
       inkscape:collect="always"
       xlink:href="#linearGradient2855"
       id="linearGradient2851"
       x1="155.377"
       y1="227.375"
       x2="547.31049"
       y2="227.375"
       gradientUnits="userSpaceOnUse" />
    <linearGradient
       inkscape:collect="always"
       xlink:href="#linearGradient2855"
       id="linearGradient2876"
       x1="155.33295"
       y1="169.15617"
       x2="547.37067"
       y2="169.15617"
       gradientUnits="userSpaceOnUse" />
    <linearGradient
       inkscape:collect="always"
       xlink:href="#linearGradient2855"
       id="linearGradient3783"
       gradientUnits="userSpaceOnUse"
       x1="155.377"
       y1="227.375"
       x2="547.31049"
       y2="227.375"
       gradientTransform="translate(-155.3329,-117.2214)" />
    <linearGradient
       inkscape:collect="always"
       xlink:href="#linearGradient2855"
       id="linearGradient4687"
       gradientUnits="userSpaceOnUse"
       gradientTransform="translate(-155.1834,-116.7112)"
       x1="155.33295"
       y1="169.15617"
       x2="547.37067"
       y2="169.15617" />
    <linearGradient
       inkscape:collect="always"
       xlink:href="#linearGradient2855"
       id="linearGradient4691"
       gradientUnits="userSpaceOnUse"
       gradientTransform="translate(-155.333,-117.5454)"
       x1="155.33295"
       y1="169.15617"
       x2="547.37067"
       y2="169.15617" />
    <linearGradient
       inkscape:collect="always"
       xlink:href="#linearGradient9160"
       id="linearGradient9158"
       x1="267.43323"
       y1="73.591255"
       x2="370.00003"
       y2="73.591255"
       gradientUnits="userSpaceOnUse"
       gradientTransform="matrix(0.681492,0,0,0.681492,-132.1926,43.26589)" />
    <linearGradient
       inkscape:collect="always"
       xlink:href="#linearGradient3734"
       id="linearGradient3732"
       x1="-5.0555658"
       y1="86.944099"
       x2="85.061066"
       y2="86.944099"
       gradientUnits="userSpaceOnUse"
       gradientTransform="matrix(0.991088,0.133213,-0.133213,0.991088,12.1549,4.700537)" />
    <linearGradient
       inkscape:collect="always"
       xlink:href="#linearGradient3718"
       id="linearGradient4645"
       x1="58.589371"
       y1="-76.281151"
       x2="166.67465"
       y2="-76.281151"
       gradientUnits="userSpaceOnUse" />
    <linearGradient
       inkscape:collect="always"
       xlink:href="#linearGradient5542"
       id="linearGradient5540"
       x1="169.24451"
       y1="-72.382675"
       x2="221.97891"
       y2="-72.382675"
       gradientUnits="userSpaceOnUse"
       gradientTransform="matrix(0.824563,1.116232e-7,9.031356e-8,0.708959,-56.62266,58.33595)" />
    <linearGradient
       inkscape:collect="always"
       xlink:href="#linearGradient2855"
       id="linearGradient5560"
       gradientUnits="userSpaceOnUse"
       gradientTransform="translate(-155.1834,-116.7112)"
       x1="155.33295"
       y1="169.15617"
       x2="547.37067"
       y2="169.15617" />
  </defs>
  <sodipodi:namedview
     id="base"
     pagecolor="#ffffff"
     bordercolor="#666666"
     borderopacity="1.0"
     gridtolerance="10000"
     guidetolerance="10"
     objecttolerance="10"
     inkscape:pageopacity="0.0"
     inkscape:pageshadow="2"
     inkscape:zoom="4"
     inkscape:cx="91.803253"
     inkscape:cy="66.49231"
     inkscape:document-units="px"
     inkscape:current-layer="layer1"
     inkscape:window-width="1280"
     inkscape:window-height="973"
     inkscape:window-x="0"
     inkscape:window-y="30"
     showgrid="true"
     width="392.03769px"
     height="142.3078px" />
  <metadata
     id="metadata7">
    <rdf:RDF>
      <cc:Work
         rdf:about="">
        <dc:format>image/svg+xml</dc:format>
        <dc:type
           rdf:resource="http://purl.org/dc/dcmitype/StillImage" />
      </cc:Work>
    </rdf:RDF>
  </metadata>
  <g
     inkscape:label="Layer 1"
     inkscape:groupmode="layer"
     id="layer1"
     transform="translate(-6.106694e-2,-14.34229)">
    <g
       id="g5550"
       transform="matrix(1,0,0,0.781099,0,31.16424)">
      <path
         sodipodi:nodetypes="ccccccc"
         id="path8438"
         d="M 112.12869,19.515109 L 112.09812,58.660767 L 120.67325,99.446931 C 123.9762,95.429715 126.22982,88.375815 125.50058,80.807467 L 120.67325,57.472811 L 116.30423,36.485761 C 114.36382,27.688236 113.20731,22.469228 112.12869,19.515109 z "
         style="fill:#b3b3b3;fill-rule:evenodd;stroke:black;stroke-width:0.53198516px;stroke-linecap:butt;stroke-linejoin:round;stroke-opacity:1" />
      <g
         transform="matrix(0.325895,0,0,0.905102,0.141292,13.72153)"
         id="g5582">
        <path
           style="fill:#999;fill-rule:evenodd;stroke:black;stroke-width:1.18727612px;stroke-linecap:butt;stroke-linejoin:round;stroke-opacity:1"
           d="M 56.85797,3.86335 C 55.22368,4.6994 53.74776,5.92524 52.17047,7.7071 C 52.12008,7.76402 52.0648,7.80528 52.01422,7.86335 C 51.82231,8.10648 51.64757,8.32911 51.45172,8.5821 C 50.45038,9.87561 49.36223,11.3254 48.23297,12.8946 C 45.95272,16.26492 43.28397,20.66084 39.73297,26.4571 L 8.07672,74.26959 C 0.8594,82.40918 15.39253,96.68398 27.91207,97.02721 L 56.73297,48.80085 L 56.85797,3.86335 z "
           id="path8481"
           sodipodi:nodetypes="cssscccccc" />
        <rect
           style="fill:#999;fill-rule:evenodd;stroke:black;stroke-width:1px;stroke-linecap:butt;stroke-linejoin:round;stroke-opacity:1"
           id="rect6576"
           width="287.14285"
           height="47.142849"
           x="56.095657"
           y="2.283643" />
        <path
           style="fill:#ac9d93;fill-rule:evenodd;stroke:black;stroke-width:1px;stroke-linecap:butt;stroke-linejoin:round;stroke-opacity:1"
           d="M 56.296563,49.40419 L 343.3948,49.493474 L 378.77426,108.71222 L 20.559954,108.53365 L 56.296563,49.40419 z "
           id="rect8483"
           sodipodi:nodetypes="ccccc" />
        <path
           style="fill:url(#linearGradient5560);fill-opacity:1;fill-rule:evenodd;stroke:black;stroke-width:0.86928821px;stroke-linecap:butt;stroke-linejoin:round;stroke-opacity:1"
           d="M 68.368231,0.9468204 C 49.453949,0.9468204 49.891311,0.6391804 34.243231,26.97807 L 1.5244811,77.91557 C 0.67904307,80.110947 0.44535607,82.213249 0.68073107,84.22807 L 7.9307312,84.22807 C 9.3077793,87.323353 12.006994,90.043871 15.493231,92.32182 C 8.8344939,87.952135 5.1484911,81.84308 7.8994812,74.91557 L 39.555731,27.10307 C 54.691133,2.3977204 54.261141,2.6968204 72.555731,2.6968204 L 324.36823,2.6968204 C 342.66281,2.6968204 342.26407,2.3977204 357.39948,27.10307 L 384.89948,74.91557 C 385.76885,78.164285 385.25529,81.310581 383.71198,84.22807 L 391.33698,84.22807 C 389.95452,90.392416 384.33555,95.872947 376.83698,99.47807 C 386.85139,94.68236 393.55507,86.583197 391.30573,77.91557 L 362.83698,26.97807 C 347.18889,0.6391904 347.62624,0.9468204 328.71198,0.9468204 L 68.368231,0.9468204 z M 376.83698,99.47807 C 375.17063,100.27921 373.41189,100.96754 371.58698,101.57182 C 373.40978,100.97096 375.17169,100.27555 376.83698,99.47807 z M 371.58698,101.57182 C 370.67452,101.87396 369.74805,102.16745 368.80573,102.41557 C 369.75649,102.16717 370.66645,101.87526 371.58698,101.57182 z M 368.80573,102.41557 C 367.86341,102.66369 366.89639,102.88093 365.93073,103.07182 C 366.89733,102.88277 367.86235,102.66204 368.80573,102.41557 z M 365.93073,103.07182 C 364.96507,103.26271 363.9757,103.4101 362.99323,103.54057 C 363.98125,103.41184 364.95956,103.26176 365.93073,103.07182 z M 362.99323,103.54057 C 362.23794,103.64087 361.4738,103.72766 360.71198,103.79057 C 361.47919,103.72945 362.23254,103.63968 362.99323,103.54057 z M 383.71198,84.22807 L 383.61823,84.22807 C 379.91232,91.233773 370.2553,96.817239 359.43073,98.66557 C 370.29448,96.838583 379.99525,91.254211 383.71198,84.22807 z M 359.43073,98.66557 C 358.86556,98.762074 358.28281,98.839772 357.71198,98.91557 C 358.2856,98.840923 358.86273,98.761092 359.43073,98.66557 z M 15.493231,92.32182 C 16.739092,93.13588 18.094589,93.884589 19.524481,94.57182 C 18.08963,93.880248 16.741744,93.141136 15.493231,92.32182 z M 0.68073107,84.22807 L 0.58698107,84.22807 C 1.1460721,89.013895 4.5024271,93.192334 9.3682313,96.47807 C 4.5347291,93.202267 1.2371921,88.991396 0.68073107,84.22807 z M 9.3682313,96.47807 C 11.948847,98.220685 14.959632,99.711369 18.211981,100.88432 C 14.956134,99.706665 11.947484,98.226103 9.3682313,96.47807 z M 20.993231,95.25932 C 22.48275,95.904006 24.034993,96.477499 25.649481,96.97807 C 24.037148,96.475403 22.480056,95.905656 20.993231,95.25932 z M 25.649481,96.97807 C 26.733101,97.314046 27.839232,97.617783 28.961981,97.88432 C 27.848209,97.617485 26.724369,97.313181 25.649481,96.97807 z M 34.711981,98.91557 C 35.068675,98.959317 35.417124,99.004221 35.774481,99.04057 C 35.418394,99.003548 35.067381,98.959921 34.711981,98.91557 z M 356.21198,99.10307 C 355.70002,99.154001 355.19521,99.194525 354.68073,99.22807 C 355.19328,99.195935 355.70186,99.152436 356.21198,99.10307 z M 37.493231,99.19682 C 37.982899,99.230054 38.473179,99.271765 38.961981,99.29057 C 38.470416,99.270644 37.985629,99.231302 37.493231,99.19682 z M 19.868231,101.44682 C 20.425464,101.62553 20.987548,101.78624 21.555731,101.94682 C 20.989452,101.78602 20.423563,101.6256 19.868231,101.44682 z M 23.899481,102.57182 C 24.556116,102.72566 25.202955,102.84887 25.868231,102.97807 C 25.207061,102.85059 24.552191,102.72371 23.899481,102.57182 z M 25.868231,102.97807 C 26.159774,103.03428 26.450393,103.08295 26.743231,103.13432 C 26.448903,103.08229 26.161239,103.03497 25.868231,102.97807 z M 27.336981,103.22807 C 27.989772,103.33592 28.648904,103.45725 29.305731,103.54057 C 28.648712,103.45821 27.990011,103.33504 27.336981,103.22807 z M 29.680731,103.60307 C 30.482945,103.69894 31.283331,103.76372 32.086981,103.82182 C 31.282615,103.76503 30.483723,103.69782 29.680731,103.60307 z M 32.899481,103.85307 C 33.745201,103.90054 34.589907,103.94299 35.430731,103.94682 C 34.589764,103.94462 33.745407,103.89908 32.899481,103.85307 z "
           id="path6564" />
      </g>
    </g>
    <path
       sodipodi:type="arc"
       style="fill:url(#linearGradient4645);fill-opacity:1;fill-rule:evenodd;stroke:black;stroke-width:1px;stroke-linecap:butt;stroke-linejoin:miter;stroke-opacity:1"
       id="path3750"
       sodipodi:cx="112.63201"
       sodipodi:cy="-76.278648"
       sodipodi:rx="53.538086"
       sodipodi:ry="54.800774"
       d="M 159.78966,-102.22369 A 53.538086,54.800774 0 1 1 159.62212,-102.54027"
       transform="matrix(0.628543,0,0,0.614032,-24.69747,103.1705)"
       sodipodi:start="5.7899897"
       sodipodi:end="12.066605"
       sodipodi:open="true" />
    <rect
       style="fill:url(#linearGradient5540);fill-opacity:1;fill-rule:evenodd;stroke:black;stroke-width:1.1552788;stroke-miterlimit:4;stroke-dasharray:none;stroke-opacity:1"
       id="rect4647"
       width="42.236969"
       height="98.676384"
       x="83.553185"
       y="-42.318466"
       transform="matrix(0.815254,0.579104,-0.612805,0.790234,0,0)" />
    <rect
       style="fill:url(#linearGradient9158);fill-opacity:1;fill-rule:evenodd;stroke:black;stroke-width:1.02973437;stroke-miterlimit:4;stroke-dasharray:none;stroke-opacity:1"
       id="rect2884"
       width="68.868729"
       height="68.868729"
       x="50.575935"
       y="58.983398" />
    <path
       style="fill:url(#linearGradient3732);fill-opacity:1;fill-rule:evenodd;stroke:black;stroke-width:1.51100004;stroke-miterlimit:4;stroke-dasharray:none;stroke-opacity:1"
       d="M 12.595669,126.61149 L 82.412283,114.85786 L 0.81656696,56.776753 L 12.595669,126.61149 z "
       id="rect2808" />
    <g
       id="g5578"
       transform="matrix(0.325895,0,0,0.706975,0.141292,41.88212)">
      <path
         id="path6513"
         d="M 391.4796,78.43485 C 390.52418,92.19055 375.60898,103.05985 357.2296,103.05985 L 34.26085,103.05985 C 17.33166,103.05985 3.35962,93.85701 0.51085,81.6536 L 0.4796,115.8411 C 0.4796,130.25494 15.75326,141.87236 34.7296,141.87235 L 357.2921,141.87235 C 376.26842,141.87235 391.5421,130.25495 391.5421,115.8411 L 391.5421,78.4661 C 391.51781,78.4544 391.50147,78.43933 391.4796,78.43485 z "
         style="fill:url(#linearGradient3783);fill-opacity:1;fill-rule:evenodd;stroke:black;stroke-width:0.87099999;stroke-linecap:butt;stroke-linejoin:round;stroke-miterlimit:4;stroke-dasharray:none;stroke-opacity:1" />
      <path
         id="path4689"
         d="M 0.53113393,83.394753 C 1.8794339,94.936223 19.396754,103.1135 35.499884,103.1135 L 356.99988,103.1135 C 372.94458,103.1135 388.82343,94.353593 391.28113,83.394753 L 383.56238,83.394753 C 379.00125,92.017153 365.41928,98.488503 351.74988,98.488503 L 40.781134,98.488503 C 26.883164,98.488503 11.879304,92.395783 7.8748839,83.394753 L 0.53113393,83.394753 z "
         style="fill:url(#linearGradient4691);fill-opacity:1;fill-rule:evenodd;stroke:black;stroke-width:0.86928821px;stroke-linecap:butt;stroke-linejoin:round;stroke-opacity:0" />
    </g>
  </g>
</svg>
