<?xml version="1.0" encoding="UTF-8" standalone="no"?>
<!-- Created with Inkscape (http://www.inkscape.org/) -->
<svg
   xmlns:dc="http://purl.org/dc/elements/1.1/"
   xmlns:cc="http://web.resource.org/cc/"
   xmlns:rdf="http://www.w3.org/1999/02/22-rdf-syntax-ns#"
   xmlns:svg="http://www.w3.org/2000/svg"
   xmlns="http://www.w3.org/2000/svg"
   xmlns:xlink="http://www.w3.org/1999/xlink"
   xmlns:sodipodi="http://sodipodi.sourceforge.net/DTD/sodipodi-0.dtd"
   xmlns:inkscape="http://www.inkscape.org/namespaces/inkscape"
   width="392.03769"
   height="142.3078"
   id="svg2"
   sodipodi:version="0.32"
   inkscape:version="0.44.1"
   sodipodi:docbase="/home/jellis/DeckerEgo/deskblocks/data"
   sodipodi:docname="Blocks Container.svg"
   version="1.0">
  <defs
     id="defs4">
    <linearGradient
       id="linearGradient2855">
      <stop
         id="stop2857"
         offset="0"
         style="stop-color:#dedede;stop-opacity:1;" />
      <stop
         id="stop2859"
         offset="1"
         style="stop-color:#454445;stop-opacity:1;" />
    </linearGradient>
    <linearGradient
       inkscape:collect="always"
       xlink:href="#linearGradient2855"
       id="linearGradient2851"
       x1="155.377"
       y1="227.375"
       x2="547.31049"
       y2="227.375"
       gradientUnits="userSpaceOnUse" />
    <linearGradient
       inkscape:collect="always"
       xlink:href="#linearGradient2855"
       id="linearGradient2876"
       x1="155.33295"
       y1="169.15617"
       x2="547.37067"
       y2="169.15617"
       gradientUnits="userSpaceOnUse" />
    <linearGradient
       inkscape:collect="always"
       xlink:href="#linearGradient2855"
       id="linearGradient1916"
       gradientUnits="userSpaceOnUse"
       x1="155.377"
       y1="227.375"
       x2="547.31049"
       y2="227.375" />
    <linearGradient
       inkscape:collect="always"
       xlink:href="#linearGradient2855"
       id="linearGradient1918"
       gradientUnits="userSpaceOnUse"
       x1="155.33295"
       y1="169.15617"
       x2="547.37067"
       y2="169.15617" />
  </defs>
  <sodipodi:namedview
     id="base"
     pagecolor="#ffffff"
     bordercolor="#666666"
     borderopacity="1.0"
     gridtolerance="10000"
     guidetolerance="10"
     objecttolerance="10"
     inkscape:pageopacity="0.0"
     inkscape:pageshadow="2"
     inkscape:zoom="1.979899"
     inkscape:cx="231.37014"
     inkscape:cy="36.39796"
     inkscape:document-units="px"
     inkscape:current-layer="layer1"
     inkscape:window-width="1400"
     inkscape:window-height="985"
     inkscape:window-x="0"
     inkscape:window-y="0"
     showgrid="true"
     width="392.03769px"
     height="142.3078px" />
  <metadata
     id="metadata7">
    <rdf:RDF>
      <cc:Work
         rdf:about="">
        <dc:format>image/svg+xml</dc:format>
        <dc:type
           rdf:resource="http://purl.org/dc/dcmitype/StillImage" />
      </cc:Work>
    </rdf:RDF>
  </metadata>
  <g
     inkscape:label="Layer 1"
     inkscape:groupmode="layer"
     id="layer1"
     transform="translate(-4.903266e-5,-4.559586e-5)">
    <g
       id="g2861">
      <path
         sodipodi:nodetypes="cssscccccc"
         id="path8481"
         d="M 56.85797,3.86335 C 55.22368,4.6994 53.74776,5.92524 52.17047,7.7071 C 52.12008,7.76402 52.0648,7.80528 52.01422,7.86335 C 51.82231,8.10648 51.64757,8.32911 51.45172,8.5821 C 50.45038,9.87561 49.36223,11.3254 48.23297,12.8946 C 45.95272,16.26492 43.28397,20.66084 39.73297,26.4571 L 8.07672,74.26959 C 0.8594,82.40918 15.39253,96.68398 27.91207,97.02721 L 56.73297,48.80085 L 56.85797,3.86335 z "
         style="fill:#999;fill-rule:evenodd;stroke:black;stroke-width:1.18727612px;stroke-linecap:butt;stroke-linejoin:round;stroke-opacity:1" />
      <path
         sodipodi:nodetypes="ccccccc"
         id="path8438"
         d="M 343.63003,6.40103 L 343.53628,49.65102 L 369.84878,94.71352 C 379.98377,90.27515 386.89894,82.48162 384.66128,74.11977 L 369.84878,48.33852 L 356.44253,25.15102 C 350.48845,15.43109 346.93975,9.66488 343.63003,6.40103 z "
         style="fill:#b3b3b3;fill-rule:evenodd;stroke:black;stroke-width:0.97951657px;stroke-linecap:butt;stroke-linejoin:round;stroke-opacity:1" />
      <rect
         y="2.283643"
         x="56.095657"
         height="47.142849"
         width="287.14285"
         id="rect6576"
         style="fill:#999;fill-rule:evenodd;stroke:black;stroke-width:1px;stroke-linecap:butt;stroke-linejoin:round;stroke-opacity:1" />
      <path
         sodipodi:nodetypes="ccccc"
         id="rect8483"
         d="M 56.296563,49.40419 L 343.3948,49.493474 L 378.77426,108.71222 L 20.559954,108.53365 L 56.296563,49.40419 z "
         style="fill:#ac9d93;fill-rule:evenodd;stroke:black;stroke-width:1px;stroke-linecap:butt;stroke-linejoin:round;stroke-opacity:1" />
      <g
         transform="translate(-155.3329,-117.2214)"
         id="g6572"
         style="fill:#2b1100;stroke-linejoin:round">
        <path
           style="fill:url(#linearGradient1916);fill-opacity:1;fill-rule:evenodd;stroke:black;stroke-width:0.87099999;stroke-linecap:butt;stroke-linejoin:round;stroke-miterlimit:4;stroke-dasharray:none;stroke-opacity:1"
           d="M 546.8125,195.65625 C 545.85708,209.41195 530.94188,220.28125 512.5625,220.28125 L 189.59375,220.28125 C 172.66456,220.28125 158.69252,211.07841 155.84375,198.875 L 155.8125,233.0625 C 155.8125,247.47634 171.08616,259.09376 190.0625,259.09375 L 512.625,259.09375 C 531.60132,259.09375 546.875,247.47635 546.875,233.0625 L 546.875,195.6875 C 546.85071,195.6758 546.83437,195.66073 546.8125,195.65625 z "
           id="path6513" />
        <path
           style="fill:url(#linearGradient1918);fill-opacity:1;fill-rule:evenodd;stroke:black;stroke-width:0.86928821px;stroke-linecap:butt;stroke-linejoin:round;stroke-opacity:1"
           d="M 223.5625,117.65625 C 204.64822,117.65625 205.08558,117.34861 189.4375,143.6875 L 156.71875,194.625 C 151.0304,209.39612 171.92946,220.65625 190.84375,220.65625 L 512.34375,220.65625 C 531.25803,220.65625 550.05521,208.32466 546.5,194.625 L 518.03125,143.6875 C 502.38316,117.34862 502.82051,117.65625 483.90625,117.65625 L 223.5625,117.65625 z M 227.75,119.40625 L 479.5625,119.40625 C 497.85708,119.40625 497.45834,119.10715 512.59375,143.8125 L 540.09375,191.625 C 543.53247,204.47503 525.38834,216.03125 507.09375,216.03125 L 196.125,216.03125 C 177.83042,216.03125 157.59177,205.48002 163.09375,191.625 L 194.75,143.8125 C 209.8854,119.10715 209.45541,119.40625 227.75,119.40625 z "
           id="path6564" />
      </g>
    </g>
  </g>
</svg>
